<svg width="479" height="100" viewBox="0 0 479 100" fill="none" xmlns="http://www.w3.org/2000/svg">
<path d="M455 57.2C450.3 57.2 446.7 58.4 444.8 59.5L446.3 64.4C448 63.3 451 62.4 453.8 62.4C458.3 62.4 459.3 64.7 459.3 65.8V66.1C449.3 66.1 443.1 69.3 443.1 75.7C443.1 79.5 446.1 83.3 451.6 83.3C454.9 83.3 457.7 82.1 459.4 80.1H459.5L460.3 82.7H466.6V68C466.5 62.1 463.5 57.2 455 57.2ZM459.4 73.6C459.4 74 459.4 74.4 459.3 74.9C459.3 75 459.2 75.1 459.2 75.2V75.3C458.5 76.9 456.7 78.4 454.3 78.4C452.2 78.4 450.7 77.3 450.7 75.2C450.7 72.9 452.7 71.7 455.7 71.2C456.4 71.1 457.2 71 458 71C458.5 71 459 71 459.5 71V73.6H459.4Z" fill="#fff"/>
<path d="M352.6 74.7C354.7 75.8 357.9 76.8 361.2 76.8C364.7 76.8 366.6 75.3 366.6 73.1C366.6 71 365 69.7 360.9 68.3C355.2 66.3 351.5 63.2 351.5 58.2C351.5 52.4 356.4 47.9 364.4 47.9C368.3 47.9 371.1 48.7 373.1 49.6L371.4 55.8C370 55.1 367.6 54.2 364.2 54.2C360.9 54.2 359.2 55.7 359.2 57.5C359.2 59.7 361.1 60.6 365.5 62.3C371.5 64.5 374.4 67.7 374.4 72.5C374.4 78.2 370 83.1 360.6 83.1C356.7 83.1 352.8 82.1 350.9 81L352.6 74.7Z" fill="#fff"/>
<path d="M403.4 70C403.4 79.1 397 83.2 390.3 83.2C383 83.2 377.5 78.4 377.5 70.4C377.5 62.4 382.8 57.3 390.7 57.3C398.3 57.3 403.4 62.6 403.4 70ZM385.4 70.3C385.4 74.6 387.2 77.8 390.5 77.8C393.5 77.8 395.4 74.8 395.4 70.3C395.4 66.6 394 62.8 390.5 62.8C386.8 62.8 385.4 66.6 385.4 70.3Z" fill="#fff"/>
<path d="M426.1 82.1C424.7 82.7 422.1 83.2 419.2 83.2C411.2 83.2 406.1 78.3 406.1 70.5C406.1 63.2 411.1 57.3 420.3 57.3C422.3 57.3 424.6 57.7 426.2 58.3L425 64C424.1 63.6 422.7 63.2 420.7 63.2C416.6 63.2 414 66.1 414.1 70.1C414.1 74.7 417.1 77 420.9 77C422.7 77 424.1 76.7 425.3 76.2L426.1 82.1Z" fill="#fff"/>
<path d="M439.3 51C439.3 53.1 437.7 54.9 435.1 54.9C432.7 54.9 431 53.2 431.1 51C431 48.8 432.7 47.1 435.2 47.1C437.6 47.1 439.2 48.8 439.3 51ZM431.3 82.7V57.9H439V82.7H431.3Z" fill="#fff"/>
<path d="M478.5 46.7H470.8V82.7H478.5V46.7Z" fill="#fff"/>
<path d="M298.3 70.9C297.5 70.9 296.7 71 296 71.1C293 71.6 291 72.8 291 75.1C291 77.2 292.5 78.3 294.6 78.3C297 78.3 298.8 76.8 299.5 75.2C299.5 75.2 299.5 75.1 299.6 75.1C299.6 75.1 299.7 74.9 299.7 74.8C299.8 74.4 299.8 73.9 299.8 73.6V71C299.3 70.9 298.8 70.9 298.3 70.9Z" fill="#fff"/>
<path d="M327.5 0H261.4C252.3 0 244.9 7.4 244.9 16.5V82.6C244.9 91.7 252.3 99.1 261.4 99.1H327.5C336.6 99.1 344 91.7 344 82.6V16.5C344.1 7.4 336.7 0 327.5 0ZM260.8 82.7H253.1V49.6H260.8V82.7ZM325.3 49.6H332.6L326 56.3H320.6L325.3 49.6ZM280.4 82.6C279.4 83 278.5 83.3 276.2 83.3C273.6 83.3 271.4 82.3 270.1 81C268.7 79.5 268 77 268 73.6V63.5H264.5V57.8H268V49.5H275.5V57.8H280.3V63.5H275.5V72.3C275.5 75.3 276.1 77 278.8 77C279.6 77 280.2 76.9 280.4 76.8V82.6ZM306.8 82.7H300.5L299.7 80.1H299.6C297.9 82.1 295.1 83.3 291.9 83.3C286.4 83.3 283.4 79.5 283.4 75.7C283.4 69.3 289.6 66 299.6 66.1V65.8C299.6 64.6 298.6 62.3 294.1 62.4C291.4 62.4 288.4 63.3 286.7 64.4L285.3 59.5C287.2 58.4 290.7 57.2 295.5 57.2C304 57.2 307 62.1 307 68.1V82.7H306.8ZM335.8 82.7H329.7L328.7 79.2C328.4 79.6 328.1 80 327.6 80.5C327.2 81 326.6 81.4 325.9 81.8C325.2 82.2 324.4 82.6 323.5 82.8C322.6 83.1 321.5 83.2 320.3 83.2C318.9 83.2 317.7 83 316.6 82.6C315.5 82.2 314.5 81.5 313.7 80.7C312.9 79.8 312.3 78.7 311.8 77.3C311.3 75.9 311.1 74.3 311.1 72.4V57.9H318.6V71C318.6 74.9 320 77.2 323.1 77.2C325.6 77.2 327.1 75.5 327.7 74C327.9 73.5 328 73 328 72.4V57.9H335.6V82.7H335.8Z" fill="#fff"/>
<path d="M195.1 0H191.2V99.2H195.1V0Z" fill="#fff"/>
<path d="M0.0999985 29.5H16.2C22.9 29.5 28.1 31 31.9 34.1C35.7 37.1 37.6 41.3 37.6 46.5C37.6 52.1 35.7 56.5 31.8 59.6C27.9 62.7 22.6 64.3 15.7 64.3H9.9V83.6H0V29.5H0.0999985ZM10 37.6V56H16.2C19.8 56 22.6 55.2 24.6 53.6C26.6 52 27.6 49.7 27.6 46.7C27.6 43.8 26.6 41.5 24.7 40C22.8 38.5 20 37.7 16.3 37.7H10V37.6Z" fill="#fff"/>
<path d="M60.2 84.5C56.2 84.5 52.7 83.6 49.8 81.7C46.8 79.9 44.6 77.3 43 74C41.4 70.7 40.6 67 40.6 62.7C40.6 58.3 41.4 54.4 43.1 51.1C44.8 47.8 47.1 45.3 50.1 43.5C53.1 41.7 56.4 40.9 60.2 40.9C64.2 40.9 67.7 41.8 70.6 43.7C73.6 45.5 75.8 48.1 77.4 51.4C79 54.7 79.8 58.4 79.8 62.7C79.8 67.1 79 71 77.3 74.3C75.6 77.6 73.3 80.1 70.3 81.9C67.3 83.6 64 84.5 60.2 84.5ZM60.2 76.3C63.2 76.3 65.5 75.1 67.2 72.7C68.9 70.3 69.8 67 69.8 62.7C69.8 58.5 68.9 55.2 67.2 52.7C65.5 50.2 63.1 49 60.2 49C57.2 49 54.9 50.2 53.2 52.6C51.5 55 50.6 58.3 50.6 62.6C50.6 66.8 51.5 70.1 53.2 72.6C54.9 75.1 57.2 76.3 60.2 76.3Z" fill="#fff"/>
<path d="M86.2 23.9H96.1V83.5H86.2V23.9Z" fill="#fff"/>
<path d="M121.9 84.5C117.9 84.5 114.4 83.6 111.5 81.7C108.5 79.9 106.3 77.3 104.7 74C103.1 70.7 102.3 67 102.3 62.7C102.3 58.3 103.1 54.4 104.8 51.1C106.5 47.8 108.8 45.3 111.8 43.5C114.8 41.7 118.1 40.9 121.9 40.9C125.9 40.9 129.4 41.8 132.3 43.7C135.3 45.5 137.5 48.1 139.1 51.4C140.7 54.7 141.5 58.4 141.5 62.7C141.5 67.1 140.7 71 139 74.3C137.3 77.6 135 80.1 132 81.9C129.1 83.6 125.7 84.5 121.9 84.5ZM121.9 76.3C124.9 76.3 127.2 75.1 128.9 72.7C130.6 70.3 131.5 67 131.5 62.7C131.5 58.5 130.6 55.2 128.9 52.7C127.2 50.2 124.8 49 121.9 49C118.9 49 116.6 50.2 114.9 52.6C113.2 55 112.3 58.3 112.3 62.6C112.3 66.8 113.2 70.1 114.9 72.6C116.6 75.1 118.9 76.3 121.9 76.3Z" fill="#fff"/>
</svg>
